<?xml version="1.0" encoding="utf-8"?>
<!-- Generator: Adobe Illustrator 23.0.3, SVG Export Plug-In . SVG Version: 6.00 Build 0)  -->
<svg version="1.1" id="Layer_1" xmlns="http://www.w3.org/2000/svg" xmlns:xlink="http://www.w3.org/1999/xlink" x="0px" y="0px"
	 viewBox="0 0 1200 1200" enable-background="new 0 0 1200 1200" xml:space="preserve">
<g>
	<path d="M635.382,500.338c-4.375-3.646-11.576-5.268-16.347-5.757c-9.613-0.985-18.633,1.739-25.402,8.739
		c-0.841,0.87-0.007,2.684,1.272,2.185c7.247-2.832,15.074-4.61,22.906-4.016c0.599,0.046,1.184,0.163,1.771,0.266
		c-10.199,5.6-19.232,19.668-23.024,37.775c-5.352,25.577,2.054,48.04,16.857,51.139c1.15,0.24,2.307,0.36,3.471,0.36
		c6.453,0,13.045-3.669,18.884-10.597c6.305-7.482,11.135-18.083,13.598-29.849C654.361,526.723,648.245,505.586,635.382,500.338z
		 M623.557,554.783c-9.541,7.297-12.539,14.813-9.658,27.516c-8.253-3.079-13.849-19.612-9.353-41.098
		c4.415-21.092,15.834-33.945,24.573-33.945c0.586,0,1.16,0.058,1.717,0.175c0.708,0.148,1.393,0.427,2.065,0.764
		c-7.375,7.88-15.542,19.021-17.881,29.077C613.333,544.526,618.757,549.549,623.557,554.783z M726.746,499.545
		c-4.359-3.542-11.518-5.025-16.36-5.641c-8.656-1.1-16.245,1.234-23.331,6.182c-1.46,1.019-0.615,3.465,1.253,2.972
		c6.933-1.833,14.433-2.471,21.604-2.09c0.835,0.044,1.664,0.153,2.489,0.302c-10.278,5.526-19.394,19.662-23.207,37.883
		c-2.463,11.766-2.29,23.414,0.486,32.797c3.032,10.253,8.848,16.767,16.371,18.342c1.149,0.24,2.307,0.36,3.471,0.36
		c6.453,0,13.045-3.669,18.883-10.597c6.305-7.482,11.135-18.083,13.598-29.849C747.156,525.582,740.463,503.897,726.746,499.545z
		 M711.525,538.225c-3.041,8.248,0.288,10.877,5.895,16.366c-9.408,10.03-14.795,12.921-9.052,27.778
		c-0.214-0.027-0.435-0.023-0.645-0.067c-4.383-0.917-8.108-5.535-10.218-12.669c-2.399-8.11-2.514-18.342-0.323-28.81
		c4.415-21.092,15.834-33.945,24.572-33.945c0.586,0,1.16,0.058,1.717,0.175c2.365,0.495,4.54,2.096,6.386,4.563
		C721.147,517.272,714.96,528.911,711.525,538.225z M602.135,476.234c8.207-10.548,32.805-8.919,39.16,3.109
		c0.696,1.318-0.448,2.825-1.908,2.482c-6.388-1.5-11.734-4.973-18.51-5.334c-6.066-0.323-11.713,1.774-17.682,2.301
		C601.749,478.919,601.435,477.132,602.135,476.234z M688.75,480.61c10.031-10.375,35.79-13.871,46.138-2.23
		c0.975,1.097,0.354,3.015-1.24,2.993c-6.991-0.094-13.611-2.705-20.668-2.586c-8.033,0.135-14.587,3.254-22.09,5.499
		C688.738,484.93,687.259,482.152,688.75,480.61z M661.374,600.458c-11.592,0-21.023,9.431-21.023,21.023
		s9.431,21.023,21.023,21.023s21.023-9.431,21.023-21.023S672.966,600.458,661.374,600.458z M661.374,634.343
		c-7.092,0-12.862-5.77-12.862-12.862s5.77-12.862,12.862-12.862s12.862,5.77,12.862,12.862S668.465,634.343,661.374,634.343z
		 M471.548,735.796c-17.473,21.57-34.872,43.199-52.31,64.797c-16.617,20.581-32.304,43.506-51.719,61.534
		c-1.352,1.255-3.47-0.343-2.553-1.97c13.121-23.303,32.181-44.154,48.714-65.122c16.643-21.108,33.447-42.086,50.311-63.018
		c16.86-20.927,33.754-41.828,50.78-62.621c16.307-19.915,32.299-45.523,53.576-60.338c1.134-0.79,2.152,0.692,1.701,1.701
		c-10.335,23.112-31.713,43.076-47.594,62.54C505.468,694.118,488.46,714.918,471.548,735.796z M623.804,665.429
		c-28.824,44.159-63.573,85.306-96.261,126.656c-33.697,42.626-67.153,85.903-105.102,124.818c-1.092,1.12-3.145-0.392-2.203-1.7
		c30.927-42.927,65.495-83.182,98.353-124.665c33.738-42.594,64.966-87.631,100.055-129.089
		C621.075,658.582,625.813,662.35,623.804,665.429z M675.974,657.952c-7.906,11.086-26.105,10.715-36.374,3.039
		c-2.064-1.543-0.923-4.998,1.818-4.312c5.362,1.342,10.929,2.441,16.481,2.025c5.434-0.407,10.762-2.375,16.167-3.235
		C675.356,655.265,676.929,656.613,675.974,657.952z M1016.173,288.44c0.381-0.775,0.47-1.72,0.077-2.797
		c-6.061-16.572-17.342-31.721-28.518-45.207c-3.743-4.516-11.428-15.161-19.279-21.031c2.884-5.25,4.862-11.379,5.289-18.32
		c0.491-1.047,0.975-2.137,1.445-3.31c9.376-23.424-0.383-39.435-5.014-45.231c-5.484-6.864-12.601-11.076-18.842-11.399
		c-4.798-7.77-11.088-12.966-17.874-14.481c-4.54-1.011-9.005-0.27-12.887,2.033c-2.705-1.774-5.724-3.168-9.07-4.034
		c-9.5-2.457-23.07-1.489-30.064,9.342c-5.081,7.869-6.412,16.942-7.7,25.717c-0.095,0.645-0.194,1.252-0.288,1.884
		c-6.737-1.981-14.596-2.426-20.171-1.43c-0.972,0.174-1.638,0.667-2.054,1.31c-0.389,0.206-0.768,0.492-1.119,0.906
		c-96.242,113.571-193.24,226.461-288.634,340.707c-7.635-32.91,2.022-60.175,25.771-84.889
		c20.368-21.195,42.905-40.493,54.293-68.353c11.924-29.171,10.39-59.836,10.441-90.654c0.032-19.152,3.467-36.783,12.235-53.884
		c6.487-12.651,16.44-23.394,23.344-35.709c9.285,4.133,17.931,6.97,22.28,7.726c1.13,0.197,2.234,0.291,3.302,0.291
		c6.586,0,11.818-3.632,13.495-9.669c0.599-2.153,0.688-4.502,0.281-6.943c9.239-2.586,21.876-6.775,26.109-19.332
		c1.35-4.006,1.665-9.106,0.899-14.165c1.501-2.564,3.171-5.099,4.957-7.766c4.924-7.348,10.017-14.947,11.529-24.165
		c1.951-11.879-6.613-22.141-15.967-27.042c-2.885-1.512-5.868-2.517-8.878-3.046c-1.371-4.766-4.209-8.478-8.374-10.805
		c-5.932-3.317-13.969-3.516-23.038-0.76c-5.193-3.612-14.201-4.919-23.176-3.152c-8.759,1.724-24.637,7.802-32.561,29.156
		c-0.438,1.18-0.81,2.309-1.148,3.41c-13.995,17.463-10.529,38.937-3.968,48.988c-1.343,2.551-2.116,6.43,0.183,11.872
		c1.974,4.671,6.678,9.276,12.609,13.506c-22.259,18.379-37.503,42.761-41.324,71.939c-5.435,41.502,7.326,83.075-16.669,120.781
		c-17.515,27.524-44.102,47.816-62.015,75.07c-20.523,31.224-22.673,70.232-8.678,104.644c0.174,0.428,0.432,0.731,0.718,0.98
		c-43.03,51.792-85.701,103.89-127.771,156.5c-39.819,49.795-80.721,99.401-116.474,152.235c-0.045,0.067-0.047,0.136-0.082,0.203
		c-0.149,0.171-0.305,0.331-0.413,0.572c-22.622,50.41-38.973,104.507-57.757,156.46c-17.86,49.397-34.832,99.027-52.009,148.656
		c-1.307,3.775,3.676,5.568,5.977,3.137c37.052-18.861,72.492-41.972,107.682-64.714c0.506-0.192,0.946-0.473,1.302-0.841
		c9.838-6.356,19.658-12.679,29.49-18.865c45.711-28.76,93.069-56.505,136.33-88.879c0.446-0.334,0.782-0.719,1.026-1.131
		c37.278-36.42,69.453-78.367,101.925-119.017c34.136-42.733,68.24-85.492,102.359-128.238
		c26.19-32.811,52.769-65.419,79.261-98.113c39.664,5.343,76.251-1.5,105.757-30.573c25.416-25.043,41.426-60.87,41.791-96.665
		c0.171-16.802-3.882-32.697-9.857-48.102c24.191-24.287,44.314-54.115,65.659-80.824c21.222-26.555,45.297-52.608,63.741-81.157
		C1016.809,290.608,1016.717,289.41,1016.173,288.44z M762.353,94.263c-1.227,7.47-5.613,14.016-10.257,20.946
		c-0.47,0.701-0.94,1.426-1.413,2.138c-1.248-2.387-2.814-4.541-4.726-6.27c-0.432-0.39-0.887-0.716-1.339-1.051
		c3.959-4.591,8.588-11.256,6.856-19.568c-0.461-2.205-2.613-3.625-4.827-3.161c-2.206,0.46-3.621,2.621-3.161,4.827
		c1.201,5.763-3.528,10.952-6.981,14.74c-0.045,0.049-0.077,0.087-0.121,0.135c-2.778-0.158-5.7,0.386-8.679,1.734
		c-2.606,1.179-4.688,2.494-6.36,3.862c-2.084,0.201-4.404-0.278-6.527-1.443c-3.446-1.889-5.115-5.055-4.583-8.687
		c0.588-3.999,2.933-8.004,5.378-11.737c2.93-4.474,6.475-8.476,10.535-11.896c7.394-6.231,16.326-7.345,24.503-3.059
		C757.406,79.312,763.645,86.403,762.353,94.263z M733.204,61.816c1.499,0.838,2.647,2.036,3.495,3.524
		c-5.578,0.778-11.003,3.203-15.81,7.251c-4.666,3.93-8.739,8.528-12.105,13.664c-2.957,4.513-5.806,9.457-6.624,15.021
		c-0.681,4.634,0.596,9.043,3.38,12.528c-4.339,1.825-7.941,0.868-10.396-0.516c-5.515-3.107-8.959-10.342-8.19-17.204
		c1.469-13.115,11.827-27.026,24.094-32.361C720.189,59.751,728.266,59.053,733.204,61.816z M692.548,58.789
		c4.045-0.799,7.776-0.745,10.811-0.259c-12.886,7.551-22.898,22.218-24.515,36.647c-0.458,4.087,0.132,8.193,1.499,11.971
		c-4.394,0.487-10.344-0.156-13.799-3.5c-4.105-3.975-3.506-10.87-1.756-17.001c0.092-0.23,0.161-0.463,0.209-0.702
		c0.33-1.092,0.689-2.158,1.064-3.17C672.603,65.152,685.465,60.183,692.548,58.789z M660.998,141.031
		c-1.639-3.88-0.436-5.138-0.04-5.551c2.573-2.69,10.675-3.125,16.673-0.902c2.108,0.788,4.46-0.291,5.245-2.406
		c0.784-2.113-0.292-4.462-2.405-5.245c-5.507-2.045-14.492-2.953-20.971-0.101c-2.696-4.956-4.964-14.108-2.851-23.834
		c1.056,2.83,2.607,4.958,4.221,6.52c4.541,4.397,11.011,5.983,16.803,5.983c2.509,0,4.859-0.318,6.902-0.814
		c1.847,2.301,4.03,4.291,6.566,5.719c3.079,1.733,6.346,2.591,9.647,2.591c4.025,0,8.099-1.279,11.939-3.803
		c0.976,0.417,1.974,0.765,2.984,1.025c-0.578,1.562-0.823,2.983-0.904,4.108c-0.422,5.89,2.747,11.592,8.478,15.251
		c1.899,1.211,4.42,0.656,5.635-1.243c1.213-1.899,0.656-4.422-1.243-5.635c-3.167-2.023-4.935-4.935-4.73-7.789
		c0.242-3.374,3.128-6.477,8.125-8.737c3.748-1.696,6.825-1.38,9.412,0.96c5.265,4.765,6.907,15.711,4.804,21.948
		c-3.004,8.909-12.932,11.966-21.294,14.278c-4.066-6.735-12.191-13.504-25.359-18.615c-2.112-0.818-4.467,0.227-5.281,2.327
		c-0.816,2.101,0.227,4.466,2.327,5.281c19.463,7.554,24.491,18.377,23.087,23.424c-0.802,2.886-3.625,4.2-7.537,3.521
		C699.91,167.328,665.859,152.538,660.998,141.031z M942.872,232.043c-2.849-6.545-10.208-11.979-15.715-14.183
		c-2.091-0.838-4.466,0.179-5.304,2.273c-0.837,2.092,0.179,4.467,2.273,5.304c5.959,2.386,11.689,8.172,11.79,11.908
		c0.016,0.575,0.062,2.326-3.774,4.108c-11.369,5.281-46.636-6.657-56.376-12.818c-2.103-1.331-4.32-3.512-2.937-6.345
		c2.461-5.049,14.59-9.488,32.797-2.974c2.119,0.757,4.456-0.347,5.217-2.468c0.758-2.123-0.347-4.458-2.468-5.217
		c-12.619-4.51-23.314-4.632-31.033-2.141c-4.593-7.386-10.31-17.618-6.543-26.259c1.599-3.669,5.388-7.688,9.709-10.292
		c0.788-0.143,1.49-0.539,2.061-1.112c2.193-1.043,4.453-1.68,6.583-1.68c0.003,0,0.005,0,0.008,0
		c3.504,0.003,6.008,1.845,7.652,5.632c2.193,5.049,2.247,9.302,0.153,11.976c-1.772,2.262-5.049,3.236-8.771,2.607
		c-2.205-0.364-4.328,1.118-4.705,3.342c-0.376,2.221,1.12,4.328,3.342,4.705c6.717,1.136,12.91-0.963,16.558-5.621
		c0.657-0.839,1.379-1.975,1.981-3.397c1.042,0.55,2.1,0.993,3.168,1.309c2.164,7.926,7.538,13.39,15.091,15.104
		c1.61,0.365,3.257,0.542,4.916,0.542c1.272,0,2.545-0.14,3.813-0.342c3.835,5.634,11.683,12.101,20.503,12.101
		c0.197,0,0.396-0.003,0.594-0.009c1.043-0.035,2.163-0.178,3.326-0.447c0.143,1.023,0.511,2.09,1.046,3.185
		C953.088,226.769,947.179,230.519,942.872,232.043z M963.796,157.638c3.739,4.68,11.596,17.662,3.814,37.103
		c-0.408,1.02-0.867,2.07-1.366,3.12c-0.112,0.191-0.208,0.391-0.288,0.601c-2.829,5.744-7.03,11.285-12.769,11.474
		c-4.855,0.185-9.698-3.348-12.628-6.675c3.567-1.886,6.766-4.571,9.18-7.921c8.648-11.996,11.023-30.012,6.234-44.414
		C958.529,152.301,961.31,154.526,963.796,157.638z M931.677,134.63c5.747,1.283,11.476,7.134,15.327,15.652
		c5.526,12.228,3.856,29.548-3.885,40.287c-4.051,5.621-11.492,8.678-17.682,7.275c-2.764-0.627-6.096-2.351-8.094-6.653
		c2.39-0.382,4.447-1.098,5.776-1.868c2.262-1.31,4.158-3.416,5.795-6.439c5.427-10.031,6.03-23.433,4.784-32.632
		c-0.818-6.044-3.128-11.319-6.557-15.583C928.576,134.293,930.091,134.275,931.677,134.63z M881.809,160.907
		c1.214-8.278,2.363-16.096,6.482-22.476c4.337-6.717,13.753-7.788,21.162-5.868c8.967,2.323,14.857,9.169,16.159,18.783
		c1.348,9.957-0.173,20.811-3.875,27.652c-0.901,1.66-1.786,2.728-2.711,3.264c-0.074,0.044-7.616,3.356-12.561-2.274
		c-0.301-2.222-0.969-4.703-2.167-7.462c-1.313-3.023-3.129-5.404-5.316-7.159c0-0.13,0.003-0.232,0.003-0.365
		c-0.009-5.051-0.023-11.969,4.774-15.46c1.822-1.327,2.224-3.879,0.898-5.701c-1.326-1.82-3.872-2.222-5.701-0.898
		c-6.959,5.066-7.968,13.146-8.108,19.16c-0.555-0.054-1.106-0.119-1.683-0.119c-0.005,0-0.008,0-0.013,0
		c-2.586,0-5.201,0.547-7.735,1.483C881.546,162.613,881.685,161.752,881.809,160.907z M855.512,167.801
		c0.022-0.026,0.034-0.054,0.055-0.081c4.092,0.924,8.394,1.102,12.476,2.141c0.738,0.188,1.474,0.421,2.208,0.665
		c-3.073,2.891-5.523,6.208-6.933,9.441c-5.286,12.127,1.516,24.79,6.755,33.28c-2.017,1.579-3.583,3.42-4.58,5.465
		c-2.961,6.072-0.642,12.673,5.911,16.819c4.546,2.876,15.875,7.732,28.165,11.21c-5.635,16.38-15.432,29.752-25.99,42.699
		c-13.663-11.526-29.84-21.194-45.593-29.162c-11.641-5.888-26.021-12.866-39.822-13.862
		C810.75,220.328,833.33,194.235,855.512,167.801z M731.938,311.805c16.831-19.852,33.855-39.539,50.889-59.217
		c15.74,5.994,31.663,9.915,46.834,18.173c13.619,7.413,25.778,16.605,38.479,25.287c-7.866,9.479-15.794,18.994-22.393,29.604
		c-19.277,30.99-15.234,63.733-0.961,95.75c7.114,15.957,15.768,31.462,20.708,48.267c-0.375,0.175-0.731,0.433-1.045,0.8
		c-7.706,9.003-15.333,18.083-22.932,27.19c-9.867-33.716-40.993-64.544-67.189-85.291c-22.208-17.589-59.488-46.564-91.295-42.721
		C699.315,350.347,715.612,331.062,731.938,311.805z M193.223,1139.909c12.453-33.647,23.897-67.714,35.665-101.643
		c3.734,22.308,30.94,39.415,53.611,44.563C252.167,1101.039,221.724,1119.362,193.223,1139.909z M390.101,1015.7
		c-21.971,14.038-44,27.984-66.09,41.835c-10.018,6.281-20.179,12.445-30.379,18.59c-13.868-3.209-27.016-5.385-38.95-14.398
		c-12.789-9.658-16.495-21.586-21.529-35.661c2.864-8.176,5.748-16.343,8.692-24.485c17.77-49.148,38.482-98.395,53.346-148.61
		c5.541,22.25,30.634,34.252,53.023,28.514c-6.612,35.139,25.818,66.55,60.344,54.859c2.104,20.508,19.265,40.731,39.413,41.17
		C428.45,989.83,409.518,1003.294,390.101,1015.7z M661.906,723.154c-65.817,82.558-131.819,164.712-199.758,245.512
		c-10.649,0.448-21.084,0.846-30.444-5.369c-11.236-7.461-15.675-20.369-14.528-33.403c0.233-2.65-3.029-5.249-5.563-4.238
		c-32.35,12.916-66.902-13.323-54.925-48.639c0.831-2.452-1.879-5.329-4.389-4.389c-26.63,9.975-47.571-6.9-53.332-32.39
		c-0.01-0.042-0.035-0.066-0.046-0.107c36.405-43.072,70.181-88.428,105.313-132.542c35.778-44.925,72.003-89.494,108.508-133.83
		c54.265-65.905,109.002-131.437,164.033-196.712c9.309,0.586,18.301,0.609,27.42,3.446c9.731,3.028,18.869,7.821,27.641,12.943
		c1.948,1.137,3.854,2.354,5.78,3.532c-0.014,0.016-0.031,0.026-0.045,0.042c-7.113,8.223-13.435,17.199-20.101,25.79
		c-7.235,9.325-15.416,18.247-20.518,28.952c-0.467,0.98,0.576,2.43,1.658,1.657c9.314-6.659,16.132-15.841,23.297-24.682
		c7.227-8.917,14.762-17.972,20.972-27.624c0.151-0.234,0.254-0.472,0.334-0.711c11.09,7.098,21.755,14.893,31.767,23.414
		c7.995,6.804,15.641,14.086,22.742,21.854c-6.47,4.933-11.934,13.422-16.802,19.035c-7.172,8.269-15.616,16.404-20.992,26.003
		c-0.943,1.684,1.069,4.112,2.835,2.835c8.893-6.428,15.978-15.59,23.357-23.639c4.86-5.3,12.539-11.562,16.832-18.323
		c2.851,3.358,5.595,6.805,8.215,10.343c10.054,13.577,16.251,28.435,24.303,43.003
		C776.178,576.404,719.746,650.602,661.906,723.154z M859.065,542.843c-17.744,35.272-48.054,49.72-84.332,54.341
		c31.595-39.265,62.822-78.807,92.866-119.127C872.102,499.828,869.057,522.98,859.065,542.843z M883.52,446.083
		c-0.542-1.26-1.066-2.524-1.629-3.778c-11.098-24.737-25.955-49.722-23.258-77.959c2.118-22.182,16.371-37.092,30.29-52.457
		c7.571,10.908,17.968,20.133,25.801,30.892c8.473,11.639,14.767,24.052,21.09,36.864
		C918.042,401.267,898.788,422.768,883.52,446.083z M942.884,370.924c-0.37,0.464-0.747,0.927-1.119,1.391
		c-5.269-12.734-12.828-24.668-21.029-35.626c-7.758-10.365-16.635-22.138-27.673-29.428c2.793-3.161,5.529-6.366,8.087-9.694
		c10.331-13.443,18.207-29.786,19.244-46.859c1.326,0.093,2.628,0.151,3.884,0.151c4.374,0,8.269-0.596,11.302-2.006
		c5.281-2.453,7.333-5.781,8.085-8.552c5.795-1.568,13.06-5.908,19.035-12.699c5.371,5.948,12.839,11.819,15.878,15.423
		c12.04,14.28,20.248,30.172,30.214,45.761c0.055,0.086,0.124,0.153,0.184,0.233C984.934,314.015,964.463,343.822,942.884,370.924z
		 M395.145,389.063c16.02,6.02,19.266,18.279,25.878,32.056c1.212,2.525,4.417,0.905,4.693-1.271
		c0.144-1.136,0.186-2.257,0.163-3.367c2.577-12.442,4.982-22.554,16.988-30.597c2.425-1.624,1.874-4.956-0.776-5.94
		c-14.327-5.317-17.385-16.507-22.275-28.915c-0.187-1.405-0.423-2.813-0.764-4.224c-0.792-3.281-5.097-2.155-5.448,0.737
		c-1.72,14.167-2.481,29.644-18.459,35.556C392.209,384.186,392.228,387.967,395.145,389.063z M418.256,368.01
		c3.359,7.262,8.787,13.363,16.166,16.456c-5.333,4.75-10.617,10.926-13.436,17.564c-4.343-6.531-11.012-11.974-17.739-15.77
		C410.573,382.15,415.679,375.632,418.256,368.01z M485.099,295.336c16.021,6.02,19.266,18.279,25.878,32.056
		c1.212,2.525,4.417,0.905,4.693-1.271c0.144-1.136,0.186-2.257,0.163-3.366c2.577-12.442,4.982-22.555,16.988-30.598
		c2.425-1.624,1.874-4.956-0.776-5.94c-14.327-5.317-17.385-16.507-22.275-28.915c-0.187-1.405-0.423-2.813-0.764-4.224
		c-0.792-3.281-5.097-2.155-5.448,0.737c-1.72,14.167-2.481,29.644-18.459,35.556C482.163,290.458,482.182,294.239,485.099,295.336z
		 M508.21,274.281c3.359,7.262,8.787,13.363,16.166,16.456c-5.333,4.75-10.617,10.926-13.436,17.564
		c-4.343-6.531-11.012-11.973-17.739-15.769C500.527,288.422,505.633,281.903,508.21,274.281z M424.416,496.878
		c-0.187-1.405-0.423-2.813-0.764-4.224c-0.792-3.281-5.097-2.155-5.448,0.737c-1.72,14.167-2.481,29.644-18.459,35.556
		c-2.936,1.086-2.917,4.868,0,5.964c16.02,6.02,19.266,18.279,25.878,32.056c1.212,2.525,4.417,0.906,4.693-1.271
		c0.144-1.136,0.186-2.257,0.163-3.367c2.577-12.442,4.982-22.555,16.988-30.597c2.425-1.625,1.874-4.956-0.776-5.94
		C432.364,520.475,429.306,509.286,424.416,496.878z M425.587,547.878c-4.343-6.531-11.012-11.973-17.739-15.77
		c7.327-4.111,12.433-10.629,15.01-18.251c3.359,7.262,8.787,13.364,16.166,16.456C433.69,535.063,428.406,541.24,425.587,547.878z
		 M808.42,713.702c-14.327-5.317-17.385-16.507-22.275-28.915c-0.187-1.405-0.423-2.813-0.764-4.224
		c-0.792-3.281-5.097-2.155-5.448,0.737c-1.72,14.167-2.481,29.644-18.459,35.556c-2.936,1.086-2.917,4.868,0,5.964
		c16.02,6.02,19.266,18.279,25.878,32.056c1.212,2.525,4.417,0.905,4.693-1.271c0.144-1.136,0.186-2.257,0.163-3.366
		c2.577-12.442,4.983-22.555,16.988-30.598C811.621,718.017,811.07,714.686,808.42,713.702z M787.316,735.787
		c-4.343-6.531-11.012-11.974-17.739-15.77c7.327-4.111,12.433-10.628,15.01-18.251c3.359,7.262,8.787,13.363,16.166,16.456
		C795.419,722.972,790.135,729.149,787.316,735.787z M953.022,658.821c-14.327-5.317-17.385-16.507-22.275-28.915
		c-0.187-1.405-0.423-2.813-0.764-4.224c-0.792-3.281-5.097-2.155-5.448,0.737c-1.72,14.167-2.481,29.644-18.459,35.556
		c-2.936,1.086-2.917,4.868,0,5.964c16.02,6.02,19.266,18.279,25.878,32.056c1.212,2.525,4.417,0.905,4.693-1.271
		c0.144-1.136,0.186-2.257,0.163-3.366c2.577-12.442,4.982-22.555,16.987-30.598C956.223,663.136,955.672,659.805,953.022,658.821z
		 M931.917,680.906c-4.343-6.531-11.012-11.973-17.739-15.77c7.327-4.111,12.433-10.629,15.009-18.251
		c3.359,7.262,8.787,13.363,16.166,16.456C940.021,668.092,934.737,674.268,931.917,680.906z M993.78,514.275
		c-14.327-5.317-17.385-16.507-22.275-28.915c-0.187-1.405-0.423-2.813-0.764-4.224c-0.792-3.281-5.097-2.155-5.448,0.737
		c-1.72,14.167-2.481,29.644-18.459,35.556c-2.936,1.086-2.917,4.868,0,5.964c16.02,6.02,19.266,18.279,25.878,32.056
		c1.212,2.525,4.417,0.905,4.693-1.271c0.144-1.136,0.186-2.257,0.163-3.367c2.577-12.442,4.982-22.555,16.988-30.597
		C996.981,518.59,996.431,515.258,993.78,514.275z M972.676,536.36c-4.343-6.531-11.012-11.974-17.74-15.77
		c7.327-4.111,12.433-10.628,15.01-18.251c3.359,7.262,8.787,13.363,16.166,16.456C980.779,523.545,975.495,529.721,972.676,536.36z
		 M292.743,934.096c-3.509,15.628-10.357,29.961-17.013,44.446c-7.054,15.351-12.85,33.018-22.908,46.632
		c-0.923,1.25-2.811,0.515-2.505-1.056c3.214-16.545,12.352-32.821,18.876-48.332c6.181-14.696,12.133-29.494,21.279-42.648
		C291.272,931.984,293.059,932.688,292.743,934.096z M717.961,359.611c6.406-14.845,17.242-27.771,27.304-40.303
		c9.81-12.219,20.066-26.358,33.683-34.518c1.863-1.116,3.848,1.071,2.879,2.879c-7.159,13.354-19.157,24.268-28.812,35.85
		c-10.61,12.728-19.929,27.04-31.899,38.525C719.353,363.736,717.102,361.601,717.961,359.611z"/>
	<path fill="#FFE388" d="M800.752,718.223c-5.333,4.75-10.617,10.926-13.436,17.564c-4.343-6.531-11.012-11.974-17.739-15.77
		c7.327-4.111,12.433-10.628,15.01-18.251C787.945,709.029,793.373,715.13,800.752,718.223z M508.21,274.281
		c-2.576,7.622-7.683,14.14-15.009,18.251c6.727,3.796,13.396,9.239,17.739,15.769c2.819-6.639,8.103-12.814,13.436-17.564
		C516.997,287.645,511.568,281.544,508.21,274.281z M418.256,368.01c-2.576,7.622-7.683,14.14-15.01,18.251
		c6.727,3.796,13.396,9.239,17.739,15.77c2.819-6.639,8.103-12.815,13.436-17.564C427.043,381.373,421.615,375.272,418.256,368.01z
		 M929.188,646.886c-2.576,7.622-7.683,14.14-15.009,18.251c6.727,3.796,13.396,9.239,17.739,15.77
		c2.819-6.639,8.103-12.814,13.436-17.564C937.975,660.25,932.546,654.148,929.188,646.886z M422.857,513.858
		c-2.576,7.622-7.683,14.14-15.01,18.251c6.727,3.796,13.396,9.239,17.739,15.77c2.819-6.638,8.103-12.815,13.436-17.564
		C431.644,527.221,426.215,521.12,422.857,513.858z M969.946,502.34c-2.576,7.622-7.683,14.14-15.01,18.251
		c6.727,3.796,13.396,9.239,17.74,15.77c2.819-6.639,8.103-12.815,13.436-17.565C978.734,515.703,973.305,509.602,969.946,502.34z
		 M409.596,700.89L559.94,516.689c38.757-46.702,77.717-93.241,116.836-139.642c9.309,0.586,18.301,0.609,27.42,3.446
		c9.731,3.028,18.869,7.821,27.641,12.943c1.948,1.137,3.854,2.354,5.78,3.532c-0.014,0.016-0.031,0.026-0.045,0.042
		c-7.113,8.223-13.435,17.199-20.101,25.79c-7.235,9.325-15.416,18.247-20.518,28.952c-0.467,0.98,0.576,2.43,1.658,1.657
		c9.314-6.659,16.132-15.841,23.297-24.682c7.227-8.917,14.762-17.972,20.972-27.624c0.151-0.234,0.254-0.472,0.334-0.711
		c11.09,7.098,21.755,14.893,31.767,23.414c7.995,6.804,15.641,14.086,22.742,21.854c-6.47,4.933-11.934,13.422-16.802,19.035
		c-7.172,8.269-15.616,16.404-20.992,26.003c-0.943,1.684,1.069,4.112,2.835,2.835c8.893-6.428,15.978-15.59,23.357-23.639
		c4.86-5.3,12.539-11.562,16.832-18.323c2.851,3.358,5.595,6.805,8.215,10.343c10.054,13.577,16.251,28.435,24.303,43.003
		c-59.292,71.485-115.723,145.683-173.563,218.235c-65.817,82.558-131.819,164.712-199.758,245.512
		c-10.649,0.448-21.084,0.846-30.444-5.369c-11.236-7.461-15.675-20.369-14.528-33.403c0.233-2.65-3.029-5.249-5.563-4.238
		c-32.35,12.916-66.902-13.323-54.925-48.639c0.831-2.452-1.879-5.329-4.389-4.389c-26.63,9.975-47.571-6.9-53.332-32.39
		c-0.01-0.042-0.035-0.066-0.046-0.107c36.405-43.072,70.181-88.428,105.313-132.542
		C406.017,705.352,407.812,703.126,409.596,700.89z M618.647,661.45c-35.089,41.457-66.317,86.495-100.055,129.089
		c-32.858,41.483-67.426,81.738-98.353,124.665c-0.942,1.308,1.111,2.82,2.203,1.7c37.949-38.915,71.405-82.192,105.102-124.818
		c32.688-41.35,67.437-82.497,96.261-126.656C625.813,662.35,621.075,658.582,618.647,661.45z M674.066,655.47
		c-5.405,0.86-10.733,2.828-16.167,3.235c-5.552,0.416-11.119-0.683-16.481-2.025c-2.741-0.686-3.882,2.769-1.818,4.312
		c10.268,7.676,28.467,8.047,36.374-3.039C676.929,656.613,675.356,655.265,674.066,655.47z M690.89,484.286
		c7.503-2.244,14.057-5.363,22.09-5.499c7.057-0.119,13.677,2.492,20.668,2.586c1.593,0.021,2.215-1.896,1.24-2.993
		c-10.347-11.641-36.107-8.145-46.138,2.23C687.259,482.152,688.738,484.93,690.89,484.286z M688.309,503.058
		c6.933-1.833,14.433-2.471,21.604-2.09c0.835,0.044,1.664,0.153,2.489,0.302c-10.278,5.526-19.394,19.662-23.207,37.883
		c-2.463,11.766-2.29,23.414,0.486,32.797c3.032,10.253,8.848,16.767,16.371,18.342c1.149,0.24,2.307,0.36,3.471,0.36
		c6.453,0,13.045-3.669,18.883-10.597c6.305-7.482,11.135-18.083,13.598-29.849c5.154-24.623-1.54-46.309-15.256-50.661
		c-4.359-3.542-11.518-5.025-16.36-5.641c-8.656-1.1-16.245,1.234-23.331,6.182C685.596,501.106,686.441,503.552,688.309,503.058z
		 M661.374,600.458c-11.592,0-21.023,9.431-21.023,21.023s9.431,21.023,21.023,21.023s21.023-9.431,21.023-21.023
		S672.966,600.458,661.374,600.458z M603.194,478.791c5.969-0.527,11.616-2.624,17.682-2.301c6.776,0.361,12.122,3.834,18.51,5.334
		c1.46,0.343,2.604-1.164,1.908-2.482c-6.355-12.028-30.953-13.657-39.16-3.109C601.435,477.132,601.749,478.919,603.194,478.791z
		 M594.905,505.504c7.247-2.832,15.074-4.61,22.906-4.016c0.599,0.046,1.184,0.163,1.771,0.266
		c-10.199,5.6-19.232,19.668-23.024,37.775c-5.352,25.577,2.054,48.04,16.857,51.139c1.15,0.24,2.307,0.36,3.471,0.36
		c6.453,0,13.045-3.669,18.884-10.597c6.305-7.482,11.135-18.083,13.598-29.849c4.994-23.86-1.122-44.997-13.986-50.245
		c-4.375-3.646-11.576-5.268-16.347-5.757c-9.613-0.985-18.633,1.739-25.402,8.739C592.792,504.19,593.626,506.004,594.905,505.504z
		 M463.99,732.017c-16.864,20.932-33.668,41.909-50.311,63.018c-16.533,20.968-35.592,41.819-48.714,65.122
		c-0.917,1.627,1.201,3.226,2.553,1.97c19.414-18.028,35.102-40.952,51.719-61.534c17.438-21.598,34.838-43.227,52.31-64.797
		c16.912-20.878,33.921-41.678,50.906-62.497c15.88-19.464,37.259-39.428,47.594-62.54c0.451-1.009-0.567-2.491-1.701-1.701
		c-21.277,14.815-37.269,40.423-53.576,60.338C497.745,690.189,480.85,711.09,463.99,732.017z"/>
	<path fill="#FFC2C7" d="M324.01,1057.534c22.09-13.85,44.119-27.796,66.09-41.835c19.417-12.406,38.35-25.869,57.87-38.186
		c-20.148-0.438-37.309-20.661-39.413-41.17c-34.525,11.69-66.956-19.72-60.344-54.859c-22.389,5.738-47.482-6.264-53.023-28.514
		c-14.865,50.216-35.576,99.462-53.346,148.61c-2.944,8.142-5.828,16.31-8.692,24.485c5.034,14.076,8.74,26.003,21.529,35.661
		c11.934,9.012,25.082,11.188,38.95,14.398C303.832,1069.98,313.993,1063.815,324.01,1057.534z M292.743,934.096
		c-3.509,15.628-10.357,29.961-17.013,44.446c-7.054,15.351-12.85,33.018-22.908,46.632c-0.923,1.25-2.811,0.515-2.505-1.056
		c3.214-16.545,12.352-32.821,18.876-48.332c6.181-14.696,12.133-29.494,21.279-42.648
		C291.272,931.984,293.059,932.688,292.743,934.096z M868.043,169.862c0.738,0.188,1.474,0.421,2.208,0.665
		c-3.073,2.891-5.523,6.208-6.933,9.441c-5.286,12.127,1.516,24.79,6.755,33.28c-2.017,1.579-3.583,3.42-4.58,5.465
		c-2.961,6.072-0.642,12.673,5.911,16.819c4.546,2.876,15.875,7.732,28.165,11.21c-5.635,16.38-15.432,29.752-25.99,42.699
		c-13.663-11.526-29.84-21.194-45.593-29.162c-11.641-5.888-26.021-12.866-39.822-13.862c22.586-26.088,45.165-52.182,67.347-78.615
		c0.022-0.026,0.034-0.054,0.055-0.081C859.659,168.645,863.961,168.823,868.043,169.862z M1008.792,288.787
		c0.055,0.086,0.124,0.153,0.184,0.233c-24.041,24.995-44.512,54.802-66.092,81.904c-0.37,0.464-0.747,0.927-1.119,1.391
		c-5.269-12.734-12.828-24.668-21.029-35.626c-7.758-10.365-16.635-22.138-27.673-29.428c2.793-3.161,5.529-6.366,8.087-9.694
		c10.331-13.443,18.207-29.786,19.244-46.859c1.326,0.093,2.628,0.151,3.884,0.151c4.374,0,8.269-0.596,11.302-2.006
		c5.281-2.453,7.333-5.781,8.085-8.552c5.795-1.568,13.06-5.908,19.035-12.699c5.371,5.948,12.839,11.819,15.878,15.423
		C990.617,257.306,998.826,273.197,1008.792,288.787z"/>
	<path fill="#285768" d="M841.518,497.658c7.599-9.106,15.226-18.186,22.932-27.19c0.314-0.367,0.67-0.625,1.045-0.8
		c-4.94-16.805-13.595-32.31-20.708-48.267c-14.273-32.016-18.317-64.759,0.961-95.75c6.599-10.609,14.528-20.125,22.393-29.604
		c-12.701-8.682-24.861-17.874-38.479-25.287c-15.171-8.258-31.094-12.179-46.834-18.173
		c-17.034,19.678-34.058,39.365-50.889,59.217c-16.254,19.172-32.479,38.371-48.688,57.584c0.337,0.048,0.673,0.097,1.008,0.148
		c31.536-2.973,68.146,25.465,90.07,42.83C800.525,433.114,831.651,463.942,841.518,497.658z M781.826,287.669
		c-7.159,13.354-19.157,24.268-28.812,35.85c-10.61,12.728-19.929,27.04-31.899,38.525c-1.763,1.691-4.013-0.444-3.154-2.434
		c6.406-14.845,17.242-27.771,27.304-40.303c9.81-12.219,20.066-26.358,33.683-34.518
		C780.811,283.674,782.795,285.861,781.826,287.669z M282.5,1082.829c-30.333,18.21-60.776,36.533-89.277,57.08
		c12.453-33.647,23.897-67.714,35.665-101.643C232.623,1060.574,259.828,1077.681,282.5,1082.829z M881.891,442.305
		c-11.098-24.737-25.955-49.722-23.258-77.959c2.118-22.182,16.371-37.092,30.29-52.457c7.571,10.908,17.968,20.133,25.801,30.892
		c8.473,11.639,14.767,24.052,21.09,36.864c-17.772,21.623-37.026,43.123-52.294,66.438
		C882.978,444.823,882.454,443.559,881.891,442.305z"/>
	<path fill="#C1272D" d="M674.235,621.481c0,7.092-5.77,12.862-12.862,12.862s-12.862-5.77-12.862-12.862s5.77-12.862,12.862-12.862
		S674.235,614.389,674.235,621.481z"/>
	<path fill="#FFFFFF" d="M711.525,538.225c-3.041,8.248,0.288,10.877,5.895,16.366c-9.408,10.03-14.795,12.921-9.052,27.778
		c-0.214-0.027-0.435-0.023-0.645-0.067c-4.383-0.917-8.108-5.535-10.218-12.669c-2.399-8.11-2.514-18.342-0.323-28.81
		c4.415-21.092,15.834-33.945,24.572-33.945c0.586,0,1.16,0.058,1.717,0.175c2.365,0.495,4.54,2.096,6.386,4.563
		C721.147,517.272,714.96,528.911,711.525,538.225z M632.902,508.195c-0.672-0.337-1.356-0.616-2.065-0.764
		c-0.558-0.117-1.132-0.175-1.717-0.175c-8.739,0-20.158,12.854-24.573,33.945c-4.496,21.486,1.1,38.019,9.353,41.098
		c-2.881-12.703,0.117-20.22,9.658-27.516c-4.801-5.234-10.224-10.257-8.537-17.511C617.36,527.216,625.527,516.075,632.902,508.195
		z"/>
</g>
</svg>
